<svg xmlns="http://www.w3.org/2000/svg" version="1.1" xmlns:xlink="http://www.w3.org/1999/xlink" xmlns:svgjs="http://svgjs.com/svgjs" width="512" height="512" x="0" y="0" viewBox="0 0 64 64" style="enable-background:new 0 0 512 512" xml:space="preserve"><g><path d="M55 45H32V5a4 4 0 0 0-4-4H8a4 4 0 0 0-4 4v54a4 4 0 0 0 4 4h20a4 4 0 0 0 4-4v-4h23a5 5 0 0 0 0-10zM30 59a2 2 0 0 1-2 2H8a2 2 0 0 1-2-2V5a2 2 0 0 1 2-2h20a2 2 0 0 1 2 2v40h-5.773a8 8 0 1 0 0 10H30zm-8.6-4.06a6 6 0 1 1 0-9.88 4.973 4.973 0 0 0 0 9.88zM55 53H22a3 3 0 0 1 0-6h33a3 3 0 0 1 0 6z" fill="#ffffff" data-original="#000000"></path><path d="M28 36V6a1 1 0 0 0-1-1H9a1 1 0 0 0-1 1v30a1 1 0 0 0 1 1h18a1 1 0 0 0 1-1zM26 7v22H10V7zM10 35v-4h16v4z" fill="#ffffff" data-original="#000000"></path><path d="M12 10h2v3h-2zM17 10h2v3h-2zM22 10h2v3h-2zM12 16h2v3h-2zM17 16h2v3h-2zM22 16h2v3h-2zM12 22h2v3h-2zM17 22h2v3h-2zM22 22h2v3h-2z" fill="#ffffff" data-original="#000000"></path></g></svg>