<svg xmlns="http://www.w3.org/2000/svg" version="1.1" xmlns:xlink="http://www.w3.org/1999/xlink" xmlns:svgjs="http://svgjs.com/svgjs" width="512" height="512" x="0" y="0" viewBox="0 0 64 64" style="enable-background:new 0 0 512 512" xml:space="preserve" class=""><g><g data-name="Layer 3"><path d="M55.5 21.33a1 1 0 0 0-.29-.7L43.37 8.79a1 1 0 0 0-1.41 0L33.76 17l-.76-.8a2.42 2.42 0 0 0-3.32 0L16 29.9A8.53 8.53 0 0 0 16 42l-3.86 3.85a1 1 0 0 0-.29.71 1 1 0 0 0 .29.71l1.61 1.6-4.96 4.92a1 1 0 0 0 0 1.42 1 1 0 0 0 1.42 0l4.94-4.94 1.6 1.61a1 1 0 0 0 .71.29 1 1 0 0 0 .71-.29L22 48a8.53 8.53 0 0 0 12.1 0l13.7-13.66a2.36 2.36 0 0 0 0-3.32l-.8-.78 8.2-8.2a1 1 0 0 0 .3-.71zm-38 28.43-1.61-1.61-1.61-1.61 3.15-3.15 3.22 3.22zm28.88-16.84-13.7 13.7a6.54 6.54 0 0 1-9.24 0l-6.06-6.06a6.54 6.54 0 0 1 0-9.24l13.7-13.7a.33.33 0 0 1 .24-.1.34.34 0 0 1 .25.1l14.81 14.81a.34.34 0 0 1 0 .49zm-.78-4.1L35.18 18.4l7.49-7.49 10.42 10.42z" fill="#ffffff" data-original="#000000" class=""></path><path d="M41.55 16.74a1 1 0 0 0-1.42 0 1 1 0 0 0 0 1.41l.44.44A1 1 0 1 0 42 17.17zM45.85 23.87a1 1 0 1 0 1.41-1.42l-.43-.45a1 1 0 0 0-1.42 0 1 1 0 0 0 0 1.41zM36.9 30.77l-2.66 2.66a1.36 1.36 0 0 1-1 .41 1.27 1.27 0 0 1-.93-.38l-.15-.15 3.63-3.63a1 1 0 0 0 0-1.41 1 1 0 0 0-1.42 0l-3.59 3.63-.24-.24a1.33 1.33 0 0 1 0-1.9l1.22-1.22a1 1 0 0 0 0-1.42 1 1 0 0 0-1.41 0l-1.23 1.23a3.35 3.35 0 0 0 0 4.73l.23.23-1.31 1.31a3.62 3.62 0 0 0-1.75-.46 3.7 3.7 0 0 0-2.6 1.09 3.65 3.65 0 0 0-1.08 2.59 3.62 3.62 0 0 0 3.62 3.65A3.69 3.69 0 0 0 29.47 36l1.31-1.31.14.14a3.28 3.28 0 0 0 2.34 1 3.37 3.37 0 0 0 2.36-1l2.67-2.67a1 1 0 0 0 0-1.41 1 1 0 0 0-1.39.02zM27.43 39a1.67 1.67 0 0 1-2.36 0 1.6 1.6 0 0 1-.47-1.17 1.71 1.71 0 0 1 1.69-1.69A1.64 1.64 0 0 1 27.43 39z" fill="#ffffff" data-original="#000000" class=""></path></g></g></svg>