<svg xmlns="http://www.w3.org/2000/svg" version="1.1" xmlns:xlink="http://www.w3.org/1999/xlink" xmlns:svgjs="http://svgjs.com/svgjs" width="512" height="512" x="0" y="0" viewBox="0 0 682.667 682.667" style="enable-background:new 0 0 512 512" xml:space="preserve" class=""><g><defs><clipPath id="a" clipPathUnits="userSpaceOnUse"><path d="M0 512h512V0H0Z" fill="#ffffff" data-original="#000000"></path></clipPath></defs><g clip-path="url(#a)" transform="matrix(1.33333 0 0 -1.33333 0 682.667)"><path d="M0 0v0c9.231-7.479 21.769-6.969 30.708.913C42.912 11.676 58.367 18.141 75.205 18.22c16.838.079 32.353-6.241 44.657-16.888 9.012-7.798 21.554-8.19 30.715-.625v.001c13.073 10.795 13.56 32.46.768 43.685-20.997 18.422-47.571 29.391-76.398 29.256-28.828-.136-55.299-11.353-76.122-29.973C-13.862 32.332-13.174 10.673 0 0Z" style="stroke-width:15;stroke-linecap:round;stroke-linejoin:round;stroke-miterlimit:10;stroke-dasharray:67, 35, 1000, 0;stroke-dashoffset:0;stroke-opacity:1" transform="translate(180.816 161.765)" fill="none" stroke="#ffffff" stroke-width="15" stroke-linecap="round" stroke-linejoin="round" stroke-miterlimit="10" stroke-dasharray="67, 35, 1000, 0" stroke-dashoffset="0" stroke-opacity="" data-original="#000000"></path><path d="m0 0 .018-.015c10.27-8.32 24.412-6.678 33.198 3.49 31.193 36.099 75.096 58.71 123.759 58.938 48.663.229 92.775-21.968 124.303-57.773 8.88-10.085 23.037-11.594 33.229-3.178l.018.015c12.108 9.999 13.493 29.483 2.96 41.482-40.729 46.401-97.801 75.178-160.768 74.882C93.75 117.545 36.948 88.234-3.347 41.452-13.767 29.354-12.201 9.884 0 0Z" style="stroke-width:15;stroke-linecap:round;stroke-linejoin:round;stroke-miterlimit:10;stroke-dasharray:none;stroke-opacity:1" transform="translate(98.841 228.429)" fill="none" stroke="#ffffff" stroke-width="15" stroke-linecap="round" stroke-linejoin="round" stroke-miterlimit="10" stroke-dasharray="none" stroke-opacity="" data-original="#000000"></path><path d="m0 0 .025-.021c10.465-8.478 25.09-6.778 33.612 4.017C83.35 66.968 156.381 106.964 237.83 107.347c81.449.382 154.85-38.926 205.148-101.429 8.622-10.714 23.262-12.276 33.647-3.7l.025.021c11.722 9.679 13.514 28.408 3.78 40.498-59.554 73.973-146.444 120.491-242.858 120.038-96.414-.453-182.867-47.785-241.729-122.314C-13.778 28.28-11.811 9.568 0 0Z" style="stroke-width:15;stroke-linecap:round;stroke-linejoin:round;stroke-miterlimit:10;stroke-dasharray:700, 35, 1000, 0;stroke-dashoffset:0;stroke-opacity:1" transform="translate(17.779 294.352)" fill="none" stroke="#ffffff" stroke-width="15" stroke-linecap="round" stroke-linejoin="round" stroke-miterlimit="10" stroke-dasharray="700, 35, 1000, 0" stroke-dashoffset="0" stroke-opacity="" data-original="#000000"></path><path d="M0 0c-17.238 0-31.263 14.082-31.263 31.39 0 17.307 14.025 31.389 31.263 31.389S31.263 48.697 31.263 31.39C31.263 14.082 17.238 0 0 0Z" style="stroke-width:15;stroke-linecap:round;stroke-linejoin:round;stroke-miterlimit:10;stroke-dasharray:none;stroke-opacity:1" transform="translate(256 54.87)" fill="none" stroke="#ffffff" stroke-width="15" stroke-linecap="round" stroke-linejoin="round" stroke-miterlimit="10" stroke-dasharray="none" stroke-opacity="" data-original="#000000"></path></g></g></svg>